inDegrees=yes
name=ik_Shooting_orientations
DataType=double
version=3
OpenSimVersion=4.3-2021-08-27-4bc7ad9
endheader
time	pelvis_tilt	pelvis_list	pelvis_rotation	pelvis_tx	pelvis_ty	pelvis_tz	hip_flexion_r	hip_adduction_r	hip_rotation_r	knee_angle_r	knee_angle_r_beta	ankle_angle_r	subtalar_angle_r	mtp_angle_r	hip_flexion_l	hip_adduction_l	hip_rotation_l	knee_angle_l	knee_angle_l_beta	ankle_angle_l	subtalar_angle_l	mtp_angle_l	lumbar_extension	lumbar_bending	lumbar_rotation	arm_flex_r	arm_add_r	arm_rot_r	elbow_flex_r	pro_sup_r	wrist_flex_r	wrist_dev_r	arm_flex_l	arm_add_l	arm_rot_l	elbow_flex_l	pro_sup_l	wrist_flex_l	wrist_dev_l
9.779999999999999	7.338205674092161	7.595632485774132	62.85040078107814	0	0.9399999999999999	0	45.00000011886156	-9.999999988573334	0	60.00014061961729	1.047200005471912	-4.999999851047217	0	0	45.00000011886156	-9.999999988573334	0	60.00014061961729	1.047200005471912	-4.999999851047217	0	0	-7.239870402798337	1.303644508276223	-0.6869993391881765	88.46848795879406	-67.63236234595415	-50.20773428528565	99.80001421778199	45.00000025534055	0	0	0	-14.99999976522112	0	75.00017584614749	45.00000025534055	0	0
9.789999999999999	7.329928744646542	7.568651050561455	62.82474828952088	0	0.9399999999999999	0	45.00000011886156	-9.999999988573334	0	60.00014061961738	1.047200005471914	-4.999999851047217	0	0	45.00000011886156	-9.999999988573334	0	60.00014061961738	1.047200005471914	-4.999999851047217	0	0	9.972407146984827	-5.355532919459558	-0.03863272261115329	89.99309031702056	-21.14120096505938	-8.174577819341851	149.9938769955876	45.00000025534055	0	0	0	-14.99999976856639	0	75.00017584614749	45.00000025534055	0	0
9.800000000000001	7.340691025166125	7.599467020811461	62.84832162312116	0	0.9399999999999999	0	45.00000011886156	-9.999999988573334	0	60.00014061961741	1.047200005471914	-4.999999851047217	0	0	45.00000011886156	-9.999999988573334	0	60.00014061961741	1.047200005471914	-4.999999851047217	0	0	5.734135268928204	3.971123777039807	-1.310326099831109	89.99084442101271	11.84333864756566	10.37274650336408	149.9898549900152	45.00000025534055	0	0	0	-14.99999976937402	0	75.00017584614749	45.00000025534055	0	0
9.81	7.318680530120132	7.58450899785603	62.83368992064443	0	0.9399999999999999	0	45.00000011886156	-9.999999988573334	0	60.00014061961741	1.047200005471914	-4.999999851047217	0	0	45.00000011886156	-9.999999988573334	0	60.00014061961741	1.047200005471914	-4.999999851047217	0	0	10.58735393843578	0.7104778351924076	-0.9972347017419143	89.99333887371665	-1.526949463918022	9.356603566059288	149.99401201092	45.00000025534055	0	0	0	-14.9999997700889	0	75.00017584614749	45.00000025534055	0	0
9.82	7.33355840792722	7.56589438275317	62.85261611326479	0	0.9399999999999999	0	45.00000011886156	-9.999999988573334	0	60.00014061961741	1.047200005471914	-4.999999851047217	0	0	45.00000011886156	-9.999999988573334	0	60.00014061961741	1.047200005471914	-4.999999851047217	0	0	14.15807380577201	-19.78955236228431	2.837061273230921	89.99429775625659	-45.64364269594759	-3.575698030563455	149.9975143216842	45.00000025534055	0	0	0	-14.99999977019028	0	75.00017584614749	45.00000025534055	0	0
9.83	7.311108739614016	7.557156930473605	62.83343669650741	0	0.9399999999999999	0	45.00000011886156	-9.999999988573334	0	60.0001406196175	1.047200005471916	-4.999999851047217	0	0	45.00000011886156	-9.999999988573334	0	60.0001406196175	1.047200005471916	-4.999999851047217	0	0	4.969133957732551	-0.5486076294821892	-0.7595546980859943	89.99028801242171	-8.529675336358466	-15.20946827101699	149.9758786961493	45.00000025534055	0	0	0	-14.99999977361288	0	75.0001758461475	45.00000025534055	0	0
9.84	7.315248007058638	7.550181524766521	62.8262202014966	0	0.9399999999999999	0	45.00000011886157	-9.999999988573334	0	60.00014061961753	1.047200005471916	-4.999999851047217	0	0	45.00000011886157	-9.999999988573334	0	60.00014061961753	1.047200005471916	-4.999999851047217	0	0	3.267067400614998	-1.082610989543727	-0.6801790990233133	89.9887371333154	-12.80659531632744	-7.293800752891067	149.9644186979016	45.00000025534055	0	0	0	-14.9999997746645	0	75.0001758461475	45.00000025534055	0	0
9.85	7.311055702656814	7.541722934323649	62.82827719242174	0	0.9399999999999999	0	45.00000011886157	-9.999999988573334	0	60.00014061961756	1.047200005471917	-4.999999851047217	0	0	45.00000011886157	-9.999999988573334	0	60.00014061961756	1.047200005471917	-4.999999851047217	0	0	4.109845757985426	-3.29386001733365	-0.4536722280508368	89.98957502954424	-22.03551994935919	0.553750348082403	149.9831989926074	45.00000025534055	0	0	0	-14.99999977570067	0	75.0001758461475	45.00000025534055	0	0
9.859999999999999	7.301669512123615	7.53264000005868	62.82195218250153	0	0.9399999999999999	0	45.00000011886157	-9.999999988573334	0	60.00014061961758	1.047200005471917	-4.999999851047217	0	0	45.00000011886157	-9.999999988573334	0	60.00014061961758	1.047200005471917	-4.999999851047217	0	0	5.299498610039836	-5.855840824141763	-0.1523325283832184	89.99055405234989	-29.64848031229666	5.430309900297457	149.9894102481041	45.00000025534055	0	0	0	-14.99999977635263	0	75.0001758461475	45.00000025534055	0	0
9.869999999999999	7.285098707426947	7.527471242010498	62.821695280596	0	0.9399999999999999	0	45.00000011886157	-9.999999988573334	0	60.00014061961758	1.047200005471917	-4.999999851047217	0	0	45.00000011886157	-9.999999988573334	0	60.00014061961758	1.047200005471917	-4.999999851047217	0	0	6.875810943819907	-0.4864585989905222	-0.7666868296768898	89.99157933866167	-7.033963658880984	-1.430082829187577	149.9897167892165	45.00000025534055	0	0	0	-14.99999977642352	0	75.0001758461475	45.00000025534055	0	0
9.880000000000001	7.277913578691519	7.530203088731685	62.82377506452671	0	0.9399999999999999	0	45.00000011886157	-9.999999988573334	0	60.00014061961759	1.047200005471917	-4.999999851047217	0	0	45.00000011886157	-9.999999988573334	0	60.00014061961759	1.047200005471917	-4.999999851047217	0	0	6.925201185358165	1.058988054354473	-0.9609463610662963	89.99160530238198	-0.6513074785477163	-6.382616066416651	149.9888939338369	45.00000025534055	0	0	0	-14.9999997770156	0	75.0001758461475	45.00000025534055	0	0
9.890000000000001	7.276038525672556	7.510237147393306	62.83337999333477	0	0.9399999999999999	0	45.00000011886157	-9.999999988573334	0	60.00014061961762	1.047200005471918	-4.999999851047217	0	0	45.00000011886157	-9.999999988573334	0	60.00014061961762	1.047200005471918	-4.999999851047217	0	0	6.120035827529146	3.097811986157203	-1.245386830480539	89.99106742026426	7.977656132053198	-28.00933151439565	149.9457952760876	45.00000025534055	0	0	0	-14.99999977813144	0	75.0001758461475	45.00000025534055	0	0
9.9	7.262971342235415	7.493320804994189	62.8304541132089	0	0.9399999999999999	0	45.00000011886158	-9.999999988573334	0	60.00014061961808	1.047200005471926	-4.999999851047217	0	0	45.00000011886158	-9.999999988573334	0	60.00014061961808	1.047200005471926	-4.999999851047217	0	0	-1.463389807155552	-2.780750214606595	-0.6332170294029905	89.97957689657393	-35.27712569289959	-63.79230582274836	56.94712622096343	45.00000025534055	0	0	0	-14.99999979033608	0	75.00017584614751	45.00000025534055	0	0
9.91	7.266733296474439	7.478528876825515	62.82024232860586	0	0.9399999999999999	0	45.00000011886159	-9.999999988573334	0	60.00014061961838	1.047200005471931	-4.999999851047217	0	0	45.00000011886159	-9.999999988573334	0	60.00014061961838	1.047200005471931	-4.999999851047217	0	0	-7.203187117086002	1.440088064489747	-0.6891773779558662	87.41134507489807	-5.049389610576845	-32.78820489092646	0.00499442591573165	45.00000025534055	0	0	0	-14.99999979877428	0	75.00017584614753	45.00000025534055	0	0
9.92	7.265870313395895	7.472342537371499	62.81100344882323	0	0.9399999999999999	0	45.00000011886159	-9.999999988573334	0	60.00014061961841	1.047200005471932	-4.999999851047217	0	0	45.00000011886159	-9.999999988573334	0	60.00014061961841	1.047200005471932	-4.999999851047217	0	0	-7.257586498763029	1.451096620822454	-0.6896619479183087	53.93084862783423	44.11705073771166	11.78674719504738	0.002799931875596558	45.00000025534055	0	0	0	-14.99999979990649	0	75.00017584614753	45.00000025534055	0	0
9.93	7.24581851284236	7.443519494402736	62.80181708927963	0	0.9399999999999999	0	45.00000011886159	-9.999999988573334	0	60.00014061961846	1.047200005471933	-4.999999851047217	0	0	45.00000011886159	-9.999999988573334	0	60.00014061961846	1.047200005471933	-4.999999851047217	0	0	-7.191014369437669	-0.05916315005490431	3.203346869072821	21.19512636100167	55.96453704430301	89.94874314321166	0.02490335843963163	45.00000025534055	0	0	0	-14.99999980123935	0	75.00017584614753	45.00000025534055	0	0
